<?xml version="1.0" encoding="utf-8"?>
<!-- Generator: Adobe Illustrator 27.5.0, SVG Export Plug-In . SVG Version: 6.00 Build 0)  -->
<svg version="1.1" xmlns="http://www.w3.org/2000/svg" xmlns:xlink="http://www.w3.org/1999/xlink" x="0px" y="0px"
	 viewBox="0 0 500 500" style="enable-background:new 0 0 500 500;" xml:space="preserve">
<g id="BACKGROUND">
	<rect style="fill:#FBF2D0;" width="500" height="500"/>
</g>
<g id="OBJECTS">
	<g>
		<g>
			<rect x="450" y="50" style="fill:#68434D;" width="50" height="50"/>
			<g>
				<path style="fill:#FDDCA1;" d="M463.603,72.603c-3.383,0-6.136-2.753-6.136-6.137c0-3.383,2.753-6.136,6.136-6.136
					c3.384,0,6.137,2.753,6.137,6.136C469.74,69.85,466.987,72.603,463.603,72.603z"/>
				<path style="fill:#FDDCA1;" d="M486.396,72.603c-3.383,0-6.136-2.753-6.136-6.137c0-3.383,2.753-6.136,6.136-6.136
					c3.384,0,6.137,2.753,6.137,6.136C492.533,69.85,489.78,72.603,486.396,72.603z"/>
				<path style="fill:#FDDCA1;" d="M463.603,89.67c-3.383,0-6.136-2.753-6.136-6.137c0-3.383,2.753-6.136,6.136-6.136
					c3.384,0,6.137,2.753,6.137,6.136C469.74,86.917,466.987,89.67,463.603,89.67z"/>
				<path style="fill:#FDDCA1;" d="M486.396,89.67c-3.383,0-6.136-2.753-6.136-6.137c0-3.383,2.753-6.136,6.136-6.136
					c3.384,0,6.137,2.753,6.137,6.136C492.533,86.917,489.78,89.67,486.396,89.67z"/>
			</g>
		</g>
		<g>
			
				<rect x="400" y="50" transform="matrix(-1.836970e-16 1 -1 -1.836970e-16 500 -350)" style="fill:#FCC86D;" width="50" height="50"/>
			
				<rect x="420" y="30" transform="matrix(-1.836970e-16 1 -1 -1.836970e-16 480 -370)" style="fill:#FBF2D0;" width="10" height="50"/>
			
				<rect x="420" y="50" transform="matrix(-1.836970e-16 1 -1 -1.836970e-16 500 -350)" style="fill:#FBF2D0;" width="10" height="50"/>
			
				<rect x="420" y="70" transform="matrix(-1.836970e-16 1 -1 -1.836970e-16 520 -330)" style="fill:#FBF2D0;" width="10" height="50"/>
		</g>
		<g>
			
				<rect x="450" y="100" transform="matrix(6.123234e-17 -1 1 6.123234e-17 350 600)" style="fill:#68434D;" width="50" height="50"/>
			<polygon style="fill:#DD9049;" points="450,150 500,150 450,100 			"/>
		</g>
		<g>
			<rect x="300" style="fill:#FCC86D;" width="50" height="50"/>
			<path style="fill:#4F323B;" d="M350,0h-50l0,0c0,27.614,22.386,50,50,50h0V0z"/>
		</g>
		<g>
			<rect x="450" y="150" style="fill:#DD9049;" width="50" height="50"/>
			<path style="fill:#FCC86D;" d="M500,150h-50v0c0,27.614,22.386,50,50,50h0V150z"/>
			<path style="fill:#AC403E;" d="M500,150h-30l0,0c0,16.569,13.431,30,30,30l0,0V150z"/>
		</g>
		<g>
			<rect x="450" y="200" style="fill:#FBF2D0;" width="50" height="50"/>
			<g>
				<g>
					<path style="fill:#FCC86D;" d="M463,236.19c0,6.33-1.17,9.61-2.21,12.51c-0.16,0.44-0.31,0.87-0.46,1.3h-2.38
						c0.38-1.52,0.83-2.77,1.26-3.97c0.96-2.68,1.79-5,1.79-9.84c0-4.85-0.83-7.16-1.79-9.85c-1.04-2.89-2.21-6.18-2.21-12.52
						c0-6.33,1.17-9.62,2.21-12.51c0.16-0.44,0.31-0.88,0.46-1.31h2.38c-0.38,1.52-0.83,2.78-1.26,3.98c-0.96,2.68-1.79,5-1.79,9.84
						c0,4.85,0.83,7.17,1.79,9.85C461.83,226.57,463,229.85,463,236.19z"/>
				</g>
				<g>
					<path style="fill:#FCC86D;" d="M473,236.19c0,6.33-1.17,9.61-2.21,12.51c-0.16,0.44-0.31,0.87-0.46,1.3h-2.38
						c0.38-1.52,0.83-2.77,1.26-3.97c0.96-2.68,1.79-5,1.79-9.84c0-4.85-0.83-7.16-1.79-9.85c-1.04-2.89-2.21-6.18-2.21-12.52
						c0-6.33,1.17-9.62,2.21-12.51c0.16-0.44,0.31-0.88,0.46-1.31h2.38c-0.38,1.52-0.83,2.78-1.26,3.98c-0.96,2.68-1.79,5-1.79,9.84
						c0,4.85,0.83,7.17,1.79,9.85C471.83,226.57,473,229.85,473,236.19z"/>
				</g>
				<g>
					<path style="fill:#FCC86D;" d="M483,236.19c0,6.33-1.17,9.61-2.21,12.51c-0.16,0.44-0.31,0.87-0.46,1.3h-2.38
						c0.38-1.52,0.83-2.77,1.26-3.97c0.96-2.68,1.79-5,1.79-9.84c0-4.85-0.83-7.16-1.79-9.85c-1.04-2.89-2.21-6.18-2.21-12.52
						c0-6.33,1.17-9.62,2.21-12.51c0.16-0.44,0.31-0.88,0.46-1.31h2.38c-0.38,1.52-0.83,2.78-1.26,3.98c-0.96,2.68-1.79,5-1.79,9.84
						c0,4.85,0.83,7.17,1.79,9.85C481.83,226.57,483,229.85,483,236.19z"/>
				</g>
				<g>
					<path style="fill:#FCC86D;" d="M493,236.19c0,6.33-1.17,9.61-2.21,12.51c-0.16,0.44-0.31,0.87-0.46,1.3h-2.38
						c0.38-1.52,0.83-2.77,1.26-3.97c0.96-2.68,1.79-5,1.79-9.84c0-4.85-0.83-7.16-1.79-9.85c-1.04-2.89-2.21-6.18-2.21-12.52
						c0-6.33,1.17-9.62,2.21-12.51c0.16-0.44,0.31-0.88,0.46-1.31h2.38c-0.38,1.52-0.83,2.78-1.26,3.98c-0.96,2.68-1.79,5-1.79,9.84
						c0,4.85,0.83,7.17,1.79,9.85C491.83,226.57,493,229.85,493,236.19z"/>
				</g>
			</g>
		</g>
		<rect x="400" y="100" style="fill:#DD9049;" width="50" height="50"/>
		<rect x="350" y="100" style="fill:#AC403E;" width="50" height="50"/>
		<rect x="400" y="150" style="fill:#AC403E;" width="50" height="50"/>
		<rect x="400" y="200" style="fill:#AC403E;" width="50" height="50"/>
		<g>
			<rect x="350" y="50" style="fill:#FCC86D;" width="50" height="50"/>
			<path style="fill:#FBF2D0;" d="M400,90L400,90V50h-40v0C360,72.091,377.909,90,400,90z"/>
		</g>
		<rect x="250" y="50" style="fill:#FBF2D0;" width="100" height="50"/>
		<g>
			<rect x="350" style="fill:#AC403E;" width="50" height="50"/>
			<g>
				<g>
					<path style="fill:#DD9049;" d="M363.81,13c-6.33,0-9.61-1.17-12.51-2.21c-0.44-0.16-0.87-0.31-1.3-0.46V7.95
						c1.52,0.38,2.77,0.83,3.97,1.26c2.68,0.96,5,1.79,9.84,1.79c4.85,0,7.16-0.83,9.85-1.79C376.55,8.17,379.84,7,386.18,7
						c6.33,0,9.62,1.17,12.51,2.21c0.44,0.16,0.88,0.31,1.31,0.46v2.38c-1.52-0.38-2.78-0.83-3.98-1.26c-2.68-0.96-5-1.79-9.84-1.79
						c-4.85,0-7.17,0.83-9.85,1.79C373.43,11.83,370.15,13,363.81,13z"/>
				</g>
				<g>
					<path style="fill:#DD9049;" d="M363.81,23c-6.33,0-9.61-1.17-12.51-2.21c-0.44-0.16-0.87-0.31-1.3-0.46v-2.38
						c1.52,0.38,2.77,0.83,3.97,1.26c2.68,0.96,5,1.79,9.84,1.79c4.85,0,7.16-0.83,9.85-1.79c2.89-1.04,6.18-2.21,12.52-2.21
						c6.33,0,9.62,1.17,12.51,2.21c0.44,0.16,0.88,0.31,1.31,0.46v2.38c-1.52-0.38-2.78-0.83-3.98-1.26c-2.68-0.96-5-1.79-9.84-1.79
						c-4.85,0-7.17,0.83-9.85,1.79C373.43,21.83,370.15,23,363.81,23z"/>
				</g>
				<g>
					<path style="fill:#DD9049;" d="M363.81,33c-6.33,0-9.61-1.17-12.51-2.21c-0.44-0.16-0.87-0.31-1.3-0.46v-2.38
						c1.52,0.38,2.77,0.83,3.97,1.26c2.68,0.96,5,1.79,9.84,1.79c4.85,0,7.16-0.83,9.85-1.79c2.89-1.04,6.18-2.21,12.52-2.21
						c6.33,0,9.62,1.17,12.51,2.21c0.44,0.16,0.88,0.31,1.31,0.46v2.38c-1.52-0.38-2.78-0.83-3.98-1.26c-2.68-0.96-5-1.79-9.84-1.79
						c-4.85,0-7.17,0.83-9.85,1.79C373.43,31.83,370.15,33,363.81,33z"/>
				</g>
				<g>
					<path style="fill:#DD9049;" d="M363.81,43c-6.33,0-9.61-1.17-12.51-2.21c-0.44-0.16-0.87-0.31-1.3-0.46v-2.38
						c1.52,0.38,2.77,0.83,3.97,1.26c2.68,0.96,5,1.79,9.84,1.79c4.85,0,7.16-0.83,9.85-1.79c2.89-1.04,6.18-2.21,12.52-2.21
						c6.33,0,9.62,1.17,12.51,2.21c0.44,0.16,0.88,0.31,1.31,0.46v2.38c-1.52-0.38-2.78-0.83-3.98-1.26c-2.68-0.96-5-1.79-9.84-1.79
						c-4.85,0-7.17,0.83-9.85,1.79C373.43,41.83,370.15,43,363.81,43z"/>
				</g>
			</g>
		</g>
		<g>
			<rect x="450" y="400" style="fill:#AC403E;" width="50" height="50"/>
			<g>
				<path style="fill:#FDDCA1;" d="M463.603,427.397c-3.383,0-6.136,2.753-6.136,6.137c0,3.383,2.753,6.136,6.136,6.136
					c3.384,0,6.137-2.753,6.137-6.136C469.74,430.15,466.987,427.397,463.603,427.397z"/>
				<path style="fill:#FDDCA1;" d="M486.396,427.397c-3.383,0-6.136,2.753-6.136,6.137c0,3.383,2.753,6.136,6.136,6.136
					c3.384,0,6.137-2.753,6.137-6.136C492.533,430.15,489.78,427.397,486.396,427.397z"/>
				<path style="fill:#FDDCA1;" d="M463.603,410.33c-3.383,0-6.136,2.753-6.136,6.137c0,3.383,2.753,6.136,6.136,6.136
					c3.384,0,6.137-2.753,6.137-6.136C469.74,413.083,466.987,410.33,463.603,410.33z"/>
				<path style="fill:#FDDCA1;" d="M486.396,410.33c-3.383,0-6.136,2.753-6.136,6.137c0,3.383,2.753,6.136,6.136,6.136
					c3.384,0,6.137-2.753,6.137-6.136C492.533,413.083,489.78,410.33,486.396,410.33z"/>
			</g>
		</g>
		<g>
			<rect x="400" y="400" transform="matrix(6.123234e-17 -1 1 6.123234e-17 0 850)" style="fill:#FCC86D;" width="50" height="50"/>
			
				<rect x="420" y="420" transform="matrix(6.123234e-17 -1 1 6.123234e-17 -20 870)" style="fill:#FBF2D0;" width="10" height="50"/>
			<rect x="420" y="400" transform="matrix(6.123234e-17 -1 1 6.123234e-17 0 850)" style="fill:#FBF2D0;" width="10" height="50"/>
			
				<rect x="420" y="380" transform="matrix(6.123234e-17 -1 1 6.123234e-17 20 830)" style="fill:#FBF2D0;" width="10" height="50"/>
		</g>
		<g>
			
				<rect x="450" y="350" transform="matrix(-1.836970e-16 1 -1 -1.836970e-16 850 -100)" style="fill:#AC403E;" width="50" height="50"/>
			<polygon style="fill:#DD9049;" points="450,350 500,350 450,400 			"/>
		</g>
		<g>
			<rect x="300" y="450" style="fill:#FCC86D;" width="50" height="50"/>
			<path style="fill:#DD9049;" d="M350,500h-50l0,0c0-27.614,22.386-50,50-50h0V500z"/>
		</g>
		<g>
			
				<rect x="250" y="450" transform="matrix(-1 -1.224647e-16 1.224647e-16 -1 550 950)" style="fill:#DD9049;" width="50" height="50"/>
			<path style="fill:#AC403E;" d="M250,500h50l0,0c0-27.614-22.386-50-50-50h0V500z"/>
		</g>
		<g>
			<rect x="450" y="300" style="fill:#DD9049;" width="50" height="50"/>
			<path style="fill:#FCC86D;" d="M500,350h-50l0,0c0-27.614,22.386-50,50-50h0V350z"/>
			<path style="fill:#4F323B;" d="M500,350h-30l0,0c0-16.569,13.431-30,30-30l0,0V350z"/>
		</g>
		<rect x="400" y="350" style="fill:#DD9049;" width="50" height="50"/>
		<rect x="350" y="350" style="fill:#AC403E;" width="50" height="50"/>
		<rect x="400" y="300" style="fill:#AC403E;" width="50" height="50"/>
		<rect x="400" y="250" style="fill:#AC403E;" width="50" height="50"/>
		<g>
			<rect x="350" y="400" style="fill:#FCC86D;" width="50" height="50"/>
			<path style="fill:#FBF2D0;" d="M400,410L400,410v40h-40l0,0C360,427.909,377.909,410,400,410z"/>
		</g>
		<rect x="250" y="400" style="fill:#FBF2D0;" width="100" height="50"/>
		<g>
			<rect x="350" y="450" style="fill:#68434D;" width="50" height="50"/>
			<g>
				<g>
					<path style="fill:#DD9049;" d="M363.81,487c-6.33,0-9.61,1.17-12.51,2.21c-0.44,0.16-0.87,0.31-1.3,0.46v2.38
						c1.52-0.38,2.77-0.83,3.97-1.26c2.68-0.96,5-1.79,9.84-1.79c4.85,0,7.16,0.83,9.85,1.79c2.89,1.04,6.18,2.21,12.52,2.21
						c6.33,0,9.62-1.17,12.51-2.21c0.44-0.16,0.88-0.31,1.31-0.46v-2.38c-1.52,0.38-2.78,0.83-3.98,1.26
						c-2.68,0.96-5,1.79-9.84,1.79c-4.85,0-7.17-0.83-9.85-1.79C373.43,488.17,370.15,487,363.81,487z"/>
				</g>
				<g>
					<path style="fill:#DD9049;" d="M363.81,477c-6.33,0-9.61,1.17-12.51,2.21c-0.44,0.16-0.87,0.31-1.3,0.46v2.38
						c1.52-0.38,2.77-0.83,3.97-1.26c2.68-0.96,5-1.79,9.84-1.79c4.85,0,7.16,0.83,9.85,1.79c2.89,1.04,6.18,2.21,12.52,2.21
						c6.33,0,9.62-1.17,12.51-2.21c0.44-0.16,0.88-0.31,1.31-0.46v-2.38c-1.52,0.38-2.78,0.83-3.98,1.26
						c-2.68,0.96-5,1.79-9.84,1.79c-4.85,0-7.17-0.83-9.85-1.79C373.43,478.17,370.15,477,363.81,477z"/>
				</g>
				<g>
					<path style="fill:#DD9049;" d="M363.81,467c-6.33,0-9.61,1.17-12.51,2.21c-0.44,0.16-0.87,0.31-1.3,0.46v2.38
						c1.52-0.38,2.77-0.83,3.97-1.26c2.68-0.96,5-1.79,9.84-1.79c4.85,0,7.16,0.83,9.85,1.79c2.89,1.04,6.18,2.21,12.52,2.21
						c6.33,0,9.62-1.17,12.51-2.21c0.44-0.16,0.88-0.31,1.31-0.46v-2.38c-1.52,0.38-2.78,0.83-3.98,1.26
						c-2.68,0.96-5,1.79-9.84,1.79c-4.85,0-7.17-0.83-9.85-1.79C373.43,468.17,370.15,467,363.81,467z"/>
				</g>
				<g>
					<path style="fill:#DD9049;" d="M363.81,457c-6.33,0-9.61,1.17-12.51,2.21c-0.44,0.16-0.87,0.31-1.3,0.46v2.38
						c1.52-0.38,2.77-0.83,3.97-1.26c2.68-0.96,5-1.79,9.84-1.79c4.85,0,7.16,0.83,9.85,1.79c2.89,1.04,6.18,2.21,12.52,2.21
						c6.33,0,9.62-1.17,12.51-2.21c0.44-0.16,0.88-0.31,1.31-0.46v-2.38c-1.52,0.38-2.78,0.83-3.98,1.26
						c-2.68,0.96-5,1.79-9.84,1.79c-4.85,0-7.17-0.83-9.85-1.79C373.43,458.17,370.15,457,363.81,457z"/>
				</g>
			</g>
		</g>
		<g>
			<rect y="50" transform="matrix(-1 -1.224647e-16 1.224647e-16 -1 50 150)" style="fill:#AC403E;" width="50" height="50"/>
			<g>
				<path style="fill:#FDDCA1;" d="M36.397,72.603c3.383,0,6.136-2.753,6.136-6.137c0-3.383-2.753-6.136-6.136-6.136
					c-3.384,0-6.137,2.753-6.137,6.136C30.26,69.85,33.013,72.603,36.397,72.603z"/>
				<path style="fill:#FDDCA1;" d="M13.604,72.603c3.383,0,6.136-2.753,6.136-6.137c0-3.383-2.753-6.136-6.136-6.136
					c-3.384,0-6.137,2.753-6.137,6.136C7.467,69.85,10.22,72.603,13.604,72.603z"/>
				<path style="fill:#FDDCA1;" d="M36.397,89.67c3.383,0,6.136-2.753,6.136-6.137c0-3.383-2.753-6.136-6.136-6.136
					c-3.384,0-6.137,2.753-6.137,6.136C30.26,86.917,33.013,89.67,36.397,89.67z"/>
				<path style="fill:#FDDCA1;" d="M13.604,89.67c3.383,0,6.136-2.753,6.136-6.137c0-3.383-2.753-6.136-6.136-6.136
					c-3.384,0-6.137,2.753-6.137,6.136C7.467,86.917,10.22,89.67,13.604,89.67z"/>
			</g>
		</g>
		<g>
			
				<rect x="50" y="50" transform="matrix(-1.836970e-16 1 -1 -1.836970e-16 150 -4.250000e-06)" style="fill:#FCC86D;" width="50" height="50"/>
			
				<rect x="70" y="30" transform="matrix(-1.836970e-16 1 -1 -1.836970e-16 130 -20)" style="fill:#FBF2D0;" width="10" height="50"/>
			
				<rect x="70" y="50" transform="matrix(-1.836970e-16 1 -1 -1.836970e-16 150 1.421085e-14)" style="fill:#FBF2D0;" width="10" height="50"/>
			
				<rect x="70" y="70" transform="matrix(-1.836970e-16 1 -1 -1.836970e-16 170 20)" style="fill:#FBF2D0;" width="10" height="50"/>
		</g>
		<g>
			<rect y="100" transform="matrix(6.123234e-17 -1 1 6.123234e-17 -100 150)" style="fill:#AC403E;" width="50" height="50"/>
			<polygon style="fill:#FBF2D0;" points="50,150 0,150 50,100 			"/>
		</g>
		<g>
			<rect x="150" transform="matrix(-1 -1.224647e-16 1.224647e-16 -1 350 50)" style="fill:#FCC86D;" width="50" height="50"/>
			<path style="fill:#DD9049;" d="M150,0h50l0,0c0,27.614-22.386,50-50,50h0V0z"/>
		</g>
		<g>
			<rect x="200" style="fill:#DD9049;" width="50" height="50"/>
			<path style="fill:#AC403E;" d="M250,0h-50l0,0c0,27.614,22.386,50,50,50h0V0z"/>
		</g>
		<g>
			<rect y="150" transform="matrix(-1 -1.224647e-16 1.224647e-16 -1 50 350)" style="fill:#DD9049;" width="50" height="50"/>
			<path style="fill:#FCC86D;" d="M0,150h50l0,0c0,27.614-22.386,50-50,50h0V150z"/>
			<path style="fill:#4F323B;" d="M0,150h30l0,0c0,16.569-13.431,30-30,30l0,0V150z"/>
		</g>
		
			<rect x="50" y="100" transform="matrix(-1 -1.224647e-16 1.224647e-16 -1 150 250)" style="fill:#DD9049;" width="50" height="50"/>
		
			<rect x="100" y="100" transform="matrix(-1 -1.224647e-16 1.224647e-16 -1 250 250)" style="fill:#AC403E;" width="50" height="50"/>
		
			<rect x="50" y="150" transform="matrix(-1 -1.224647e-16 1.224647e-16 -1 150 350)" style="fill:#AC403E;" width="50" height="50"/>
		
			<rect x="50" y="200" transform="matrix(-1 -1.224647e-16 1.224647e-16 -1 150 450)" style="fill:#AC403E;" width="50" height="50"/>
		<g>
			
				<rect x="100" y="50" transform="matrix(-1 -1.224647e-16 1.224647e-16 -1 250 150)" style="fill:#FCC86D;" width="50" height="50"/>
			<path style="fill:#FBF2D0;" d="M100,90L100,90V50h40v0C140,72.091,122.091,90,100,90z"/>
		</g>
		
			<rect x="150" y="50" transform="matrix(-1 -1.224647e-16 1.224647e-16 -1 400 150)" style="fill:#FBF2D0;" width="100" height="50"/>
		<g>
			<rect x="100" style="fill:#68434D;" width="50" height="50"/>
			<g>
				<g>
					<path style="fill:#DD9049;" d="M136.19,13c6.33,0,9.61-1.17,12.51-2.21c0.44-0.16,0.87-0.31,1.3-0.46V7.95
						c-1.52,0.38-2.77,0.83-3.97,1.26c-2.68,0.96-5,1.79-9.84,1.79c-4.85,0-7.16-0.83-9.85-1.79C123.45,8.17,120.16,7,113.82,7
						c-6.33,0-9.62,1.17-12.51,2.21c-0.44,0.16-0.88,0.31-1.31,0.46v2.38c1.52-0.38,2.78-0.83,3.98-1.26c2.68-0.96,5-1.79,9.84-1.79
						c4.85,0,7.17,0.83,9.85,1.79C126.57,11.83,129.85,13,136.19,13z"/>
				</g>
				<g>
					<path style="fill:#DD9049;" d="M136.19,23c6.33,0,9.61-1.17,12.51-2.21c0.44-0.16,0.87-0.31,1.3-0.46v-2.38
						c-1.52,0.38-2.77,0.83-3.97,1.26c-2.68,0.96-5,1.79-9.84,1.79c-4.85,0-7.16-0.83-9.85-1.79c-2.89-1.04-6.18-2.21-12.52-2.21
						c-6.33,0-9.62,1.17-12.51,2.21c-0.44,0.16-0.88,0.31-1.31,0.46v2.38c1.52-0.38,2.78-0.83,3.98-1.26c2.68-0.96,5-1.79,9.84-1.79
						c4.85,0,7.17,0.83,9.85,1.79C126.57,21.83,129.85,23,136.19,23z"/>
				</g>
				<g>
					<path style="fill:#DD9049;" d="M136.19,33c6.33,0,9.61-1.17,12.51-2.21c0.44-0.16,0.87-0.31,1.3-0.46v-2.38
						c-1.52,0.38-2.77,0.83-3.97,1.26c-2.68,0.96-5,1.79-9.84,1.79c-4.85,0-7.16-0.83-9.85-1.79c-2.89-1.04-6.18-2.21-12.52-2.21
						c-6.33,0-9.62,1.17-12.51,2.21c-0.44,0.16-0.88,0.31-1.31,0.46v2.38c1.52-0.38,2.78-0.83,3.98-1.26c2.68-0.96,5-1.79,9.84-1.79
						c4.85,0,7.17,0.83,9.85,1.79C126.57,31.83,129.85,33,136.19,33z"/>
				</g>
				<g>
					<path style="fill:#DD9049;" d="M136.19,43c6.33,0,9.61-1.17,12.51-2.21c0.44-0.16,0.87-0.31,1.3-0.46v-2.38
						c-1.52,0.38-2.77,0.83-3.97,1.26c-2.68,0.96-5,1.79-9.84,1.79c-4.85,0-7.16-0.83-9.85-1.79c-2.89-1.04-6.18-2.21-12.52-2.21
						c-6.33,0-9.62,1.17-12.51,2.21c-0.44,0.16-0.88,0.31-1.31,0.46v2.38c1.52-0.38,2.78-0.83,3.98-1.26c2.68-0.96,5-1.79,9.84-1.79
						c4.85,0,7.17,0.83,9.85,1.79C126.57,41.83,129.85,43,136.19,43z"/>
				</g>
			</g>
		</g>
		<g>
			<rect y="400" transform="matrix(-1 -1.224647e-16 1.224647e-16 -1 50 850)" style="fill:#68434D;" width="50" height="50"/>
			<g>
				<path style="fill:#FDDCA1;" d="M36.397,427.397c3.383,0,6.136,2.753,6.136,6.137c0,3.383-2.753,6.136-6.136,6.136
					c-3.384,0-6.137-2.753-6.137-6.136C30.26,430.15,33.013,427.397,36.397,427.397z"/>
				<path style="fill:#FDDCA1;" d="M13.604,427.397c3.383,0,6.136,2.753,6.136,6.137c0,3.383-2.753,6.136-6.136,6.136
					c-3.384,0-6.137-2.753-6.137-6.136C7.467,430.15,10.22,427.397,13.604,427.397z"/>
				<path style="fill:#FDDCA1;" d="M36.397,410.33c3.383,0,6.136,2.753,6.136,6.137c0,3.383-2.753,6.136-6.136,6.136
					c-3.384,0-6.137-2.753-6.137-6.136C30.26,413.083,33.013,410.33,36.397,410.33z"/>
				<path style="fill:#FDDCA1;" d="M13.604,410.33c3.383,0,6.136,2.753,6.136,6.137c0,3.383-2.753,6.136-6.136,6.136
					c-3.384,0-6.137-2.753-6.137-6.136C7.467,413.083,10.22,410.33,13.604,410.33z"/>
			</g>
		</g>
		<g>
			
				<rect x="50" y="400" transform="matrix(6.123234e-17 -1 1 6.123234e-17 -350 500)" style="fill:#FCC86D;" width="50" height="50"/>
			
				<rect x="70" y="420" transform="matrix(6.123234e-17 -1 1 6.123234e-17 -370 520)" style="fill:#FBF2D0;" width="10" height="50"/>
			
				<rect x="70" y="400" transform="matrix(6.123234e-17 -1 1 6.123234e-17 -350 500)" style="fill:#FBF2D0;" width="10" height="50"/>
			
				<rect x="70" y="380" transform="matrix(6.123234e-17 -1 1 6.123234e-17 -330 480)" style="fill:#FBF2D0;" width="10" height="50"/>
		</g>
		<g>
			<rect y="350" transform="matrix(-1.836970e-16 1 -1 -1.836970e-16 400 350)" style="fill:#68434D;" width="50" height="50"/>
			<polygon style="fill:#DD9049;" points="50,350 0,350 50,400 			"/>
		</g>
		<g>
			
				<rect x="150" y="450" transform="matrix(-1 -1.224647e-16 1.224647e-16 -1 350 950)" style="fill:#FCC86D;" width="50" height="50"/>
			<path style="fill:#4F323B;" d="M150,500h50l0,0c0-27.614-22.386-50-50-50h0V500z"/>
		</g>
		<g>
			<rect y="300" transform="matrix(-1 -1.224647e-16 1.224647e-16 -1 50 650)" style="fill:#DD9049;" width="50" height="50"/>
			<path style="fill:#FCC86D;" d="M0,350h50v0c0-27.614-22.386-50-50-50h0V350z"/>
			<path style="fill:#AC403E;" d="M0,350h30l0,0c0-16.569-13.431-30-30-30l0,0V350z"/>
		</g>
		<g>
			<rect y="250" style="fill:#FBF2D0;" width="50" height="50"/>
			<g>
				<g>
					<path style="fill:#FCC86D;" d="M13.81,263c-6.33,0-9.61-1.17-12.51-2.21c-0.44-0.16-0.87-0.31-1.3-0.46v-2.38
						c1.52,0.38,2.77,0.83,3.97,1.26c2.68,0.96,5,1.79,9.84,1.79c4.85,0,7.16-0.83,9.85-1.79c2.89-1.04,6.18-2.21,12.52-2.21
						c6.33,0,9.62,1.17,12.51,2.21c0.44,0.16,0.88,0.31,1.31,0.46v2.38c-1.52-0.38-2.78-0.83-3.98-1.26c-2.68-0.96-5-1.79-9.84-1.79
						c-4.85,0-7.17,0.83-9.85,1.79C23.43,261.83,20.15,263,13.81,263z"/>
				</g>
				<g>
					<path style="fill:#FCC86D;" d="M13.81,273c-6.33,0-9.61-1.17-12.51-2.21c-0.44-0.16-0.87-0.31-1.3-0.46v-2.38
						c1.52,0.38,2.77,0.83,3.97,1.26c2.68,0.96,5,1.79,9.84,1.79c4.85,0,7.16-0.83,9.85-1.79c2.89-1.04,6.18-2.21,12.52-2.21
						c6.33,0,9.62,1.17,12.51,2.21c0.44,0.16,0.88,0.31,1.31,0.46v2.38c-1.52-0.38-2.78-0.83-3.98-1.26c-2.68-0.96-5-1.79-9.84-1.79
						c-4.85,0-7.17,0.83-9.85,1.79C23.43,271.83,20.15,273,13.81,273z"/>
				</g>
				<g>
					<path style="fill:#FCC86D;" d="M13.81,283c-6.33,0-9.61-1.17-12.51-2.21c-0.44-0.16-0.87-0.31-1.3-0.46v-2.38
						c1.52,0.38,2.77,0.83,3.97,1.26c2.68,0.96,5,1.79,9.84,1.79c4.85,0,7.16-0.83,9.85-1.79c2.89-1.04,6.18-2.21,12.52-2.21
						c6.33,0,9.62,1.17,12.51,2.21c0.44,0.16,0.88,0.31,1.31,0.46v2.38c-1.52-0.38-2.78-0.83-3.98-1.26c-2.68-0.96-5-1.79-9.84-1.79
						c-4.85,0-7.17,0.83-9.85,1.79C23.43,281.83,20.15,283,13.81,283z"/>
				</g>
				<g>
					<path style="fill:#FCC86D;" d="M13.81,293c-6.33,0-9.61-1.17-12.51-2.21c-0.44-0.16-0.87-0.31-1.3-0.46v-2.38
						c1.52,0.38,2.77,0.83,3.97,1.26c2.68,0.96,5,1.79,9.84,1.79c4.85,0,7.16-0.83,9.85-1.79c2.89-1.04,6.18-2.21,12.52-2.21
						c6.33,0,9.62,1.17,12.51,2.21c0.44,0.16,0.88,0.31,1.31,0.46v2.38c-1.52-0.38-2.78-0.83-3.98-1.26c-2.68-0.96-5-1.79-9.84-1.79
						c-4.85,0-7.17,0.83-9.85,1.79C23.43,291.83,20.15,293,13.81,293z"/>
				</g>
			</g>
		</g>
		
			<rect x="50" y="350" transform="matrix(-1 -1.224647e-16 1.224647e-16 -1 150 750)" style="fill:#DD9049;" width="50" height="50"/>
		
			<rect x="100" y="350" transform="matrix(-1 -1.224647e-16 1.224647e-16 -1 250 750)" style="fill:#AC403E;" width="50" height="50"/>
		
			<rect x="50" y="300" transform="matrix(-1 -1.224647e-16 1.224647e-16 -1 150 650)" style="fill:#AC403E;" width="50" height="50"/>
		
			<rect x="50" y="250" transform="matrix(-1 -1.224647e-16 1.224647e-16 -1 150 550)" style="fill:#AC403E;" width="50" height="50"/>
		<g>
			
				<rect x="100" y="400" transform="matrix(-1 -1.224647e-16 1.224647e-16 -1 250 850)" style="fill:#FCC86D;" width="50" height="50"/>
			<path style="fill:#FBF2D0;" d="M100,410L100,410v40h40l0,0C140,427.909,122.091,410,100,410z"/>
		</g>
		
			<rect x="150" y="400" transform="matrix(-1 -1.224647e-16 1.224647e-16 -1 400 850)" style="fill:#FBF2D0;" width="100" height="50"/>
		<g>
			<rect x="100" y="450" style="fill:#AC403E;" width="50" height="50"/>
			<g>
				<g>
					<path style="fill:#DD9049;" d="M136.19,487c6.33,0,9.61,1.17,12.51,2.21c0.44,0.16,0.87,0.31,1.3,0.46v2.38
						c-1.52-0.38-2.77-0.83-3.97-1.26c-2.68-0.96-5-1.79-9.84-1.79c-4.85,0-7.16,0.83-9.85,1.79c-2.89,1.04-6.18,2.21-12.52,2.21
						c-6.33,0-9.62-1.17-12.51-2.21c-0.44-0.16-0.88-0.31-1.31-0.46v-2.38c1.52,0.38,2.78,0.83,3.98,1.26
						c2.68,0.96,5,1.79,9.84,1.79c4.85,0,7.17-0.83,9.85-1.79C126.57,488.17,129.85,487,136.19,487z"/>
				</g>
				<g>
					<path style="fill:#DD9049;" d="M136.19,477c6.33,0,9.61,1.17,12.51,2.21c0.44,0.16,0.87,0.31,1.3,0.46v2.38
						c-1.52-0.38-2.77-0.83-3.97-1.26c-2.68-0.96-5-1.79-9.84-1.79c-4.85,0-7.16,0.83-9.85,1.79c-2.89,1.04-6.18,2.21-12.52,2.21
						c-6.33,0-9.62-1.17-12.51-2.21c-0.44-0.16-0.88-0.31-1.31-0.46v-2.38c1.52,0.38,2.78,0.83,3.98,1.26
						c2.68,0.96,5,1.79,9.84,1.79c4.85,0,7.17-0.83,9.85-1.79C126.57,478.17,129.85,477,136.19,477z"/>
				</g>
				<g>
					<path style="fill:#DD9049;" d="M136.19,467c6.33,0,9.61,1.17,12.51,2.21c0.44,0.16,0.87,0.31,1.3,0.46v2.38
						c-1.52-0.38-2.77-0.83-3.97-1.26c-2.68-0.96-5-1.79-9.84-1.79c-4.85,0-7.16,0.83-9.85,1.79c-2.89,1.04-6.18,2.21-12.52,2.21
						c-6.33,0-9.62-1.17-12.51-2.21c-0.44-0.16-0.88-0.31-1.31-0.46v-2.38c1.52,0.38,2.78,0.83,3.98,1.26
						c2.68,0.96,5,1.79,9.84,1.79c4.85,0,7.17-0.83,9.85-1.79C126.57,468.17,129.85,467,136.19,467z"/>
				</g>
				<g>
					<path style="fill:#DD9049;" d="M136.19,457c6.33,0,9.61,1.17,12.51,2.21c0.44,0.16,0.87,0.31,1.3,0.46v2.38
						c-1.52-0.38-2.77-0.83-3.97-1.26c-2.68-0.96-5-1.79-9.84-1.79c-4.85,0-7.16,0.83-9.85,1.79c-2.89,1.04-6.18,2.21-12.52,2.21
						c-6.33,0-9.62-1.17-12.51-2.21c-0.44-0.16-0.88-0.31-1.31-0.46v-2.38c1.52,0.38,2.78,0.83,3.98,1.26
						c2.68,0.96,5,1.79,9.84,1.79c4.85,0,7.17-0.83,9.85-1.79C126.57,458.17,129.85,457,136.19,457z"/>
				</g>
			</g>
		</g>
		<rect x="184.122" y="242.989" style="fill:#B3CC6E;" width="131.756" height="11.379"/>
		<g>
			<g>
				<polygon style="fill:#FBF2D0;" points="440,109.73 420.02,122.41 401.12,110.41 396.48,113.36 382.22,122.41 363.32,110.41 
					344.43,122.41 324.46,109.73 326.6,106.35 344.43,117.67 363.32,105.67 382.22,117.67 393.66,110.41 401.12,105.67 
					420.02,117.67 437.86,106.35 				"/>
			</g>
			<g>
				<polygon style="fill:#FBF2D0;" points="440,121.73 420.02,134.41 407.96,126.75 401.12,122.41 382.22,134.41 363.32,122.41 
					344.43,134.41 324.46,121.73 326.6,118.35 344.43,129.67 363.32,117.67 382.22,129.67 400.66,117.96 401.12,117.67 
					420.02,129.67 437.86,118.35 				"/>
			</g>
			<g>
				<polygon style="fill:#FBF2D0;" points="440,133.73 421.12,145.71 420.02,146.41 401.12,134.41 382.22,146.41 363.32,134.41 
					344.43,146.41 324.46,133.73 326.6,130.35 344.43,141.67 363.32,129.67 382.22,141.67 401.12,129.67 417.57,140.11 
					420.02,141.67 437.86,130.35 				"/>
			</g>
		</g>
		<path style="fill:#FBF2D0;" d="M117.29,100c-16.23,14.3-30.1,31.18-40.95,50H50v-50H117.29z"/>
		<path style="fill:#DD9049;" d="M450,350v50h-70.7c3.69-3.1,7.25-6.33,10.7-9.68c12.32-11.98,23.07-25.52,31.94-40.32H450z"/>
		<g>
			<rect x="400" style="fill:#4F323B;" width="100" height="50"/>
			<g>
				<path style="fill:#FCC86D;" d="M450,5.28c-25.68,0-46.73,19.64-48.99,44.72h25.62c2.09-11.01,11.74-19.32,23.37-19.32
					c11.59,0,21.26,8.31,23.35,19.32h25.64C496.73,24.92,475.64,5.28,450,5.28z"/>
				<path style="fill:#AC403E;" d="M487.13,45.57l-0.44-0.34c-3.05-2.45-4.64-6.28-4.21-10.16l0.07-0.55
					c0.8-7.26-5.34-13.4-12.6-12.59L469.4,22c-3.88,0.42-7.71-1.17-10.16-4.22l-0.34-0.43c-4.57-5.71-13.23-5.71-17.8,0l-0.34,0.43
					c-2.45,3.05-6.28,4.64-10.16,4.22l-0.55-0.07c-7.26-0.81-13.4,5.33-12.6,12.59l0.07,0.55c0.43,3.88-1.16,7.71-4.21,10.16
					l-0.44,0.34c-1.54,1.23-2.66,2.76-3.36,4.43h17.12c2.09-11.01,11.74-19.32,23.37-19.32c11.59,0,21.26,8.31,23.35,19.32h17.14
					C489.79,48.33,488.67,46.8,487.13,45.57z"/>
			</g>
		</g>
		<g>
			<rect style="fill:#68434D;" width="100" height="50"/>
			<g>
				<path style="fill:#FCC86D;" d="M50,5.28C24.32,5.28,3.27,24.92,1.01,50h25.62C28.72,38.99,38.37,30.68,50,30.68
					c11.59,0,21.26,8.31,23.35,19.32h25.64C96.73,24.92,75.64,5.28,50,5.28z"/>
				<path style="fill:#AC403E;" d="M87.13,45.57l-0.44-0.34c-3.05-2.45-4.64-6.28-4.21-10.16l0.07-0.55
					c0.8-7.26-5.34-13.4-12.6-12.59L69.4,22c-3.88,0.42-7.71-1.17-10.16-4.22l-0.34-0.43c-4.57-5.71-13.23-5.71-17.8,0l-0.34,0.43
					c-2.45,3.05-6.28,4.64-10.16,4.22l-0.55-0.07c-7.26-0.81-13.4,5.33-12.6,12.59l0.07,0.55c0.43,3.88-1.16,7.71-4.21,10.16
					l-0.44,0.34c-1.54,1.23-2.66,2.76-3.36,4.43h17.12C28.72,38.99,38.37,30.68,50,30.68c11.59,0,21.26,8.31,23.35,19.32h17.14
					C89.79,48.33,88.67,46.8,87.13,45.57z"/>
			</g>
		</g>
		<g>
			<rect y="450" style="fill:#4F323B;" width="100" height="50"/>
			<g>
				<path style="fill:#FCC86D;" d="M50,494.72c25.68,0,46.73-19.64,48.99-44.72H73.37c-2.09,11.01-11.74,19.32-23.37,19.32
					c-11.59,0-21.26-8.31-23.35-19.32H1.01C3.27,475.08,24.36,494.72,50,494.72z"/>
				<path style="fill:#AC403E;" d="M12.87,454.43l0.44,0.34c3.05,2.45,4.64,6.28,4.21,10.16l-0.07,0.55
					c-0.8,7.26,5.34,13.4,12.6,12.59L30.6,478c3.88-0.42,7.71,1.17,10.16,4.22l0.34,0.43c4.57,5.71,13.23,5.71,17.8,0l0.34-0.43
					c2.45-3.05,6.28-4.64,10.16-4.22l0.55,0.07c7.26,0.81,13.4-5.33,12.6-12.59l-0.07-0.55c-0.43-3.88,1.16-7.71,4.21-10.16
					l0.44-0.34c1.54-1.23,2.66-2.76,3.36-4.43H73.37c-2.09,11.01-11.74,19.32-23.37,19.32c-11.59,0-21.26-8.31-23.35-19.32H9.51
					C10.21,451.67,11.33,453.2,12.87,454.43z"/>
			</g>
		</g>
		<g>
			<rect x="400" y="450" style="fill:#68434D;" width="100" height="50"/>
			<g>
				<path style="fill:#FCC86D;" d="M450,494.72c25.68,0,46.73-19.64,48.99-44.72h-25.62c-2.09,11.01-11.74,19.32-23.37,19.32
					c-11.59,0-21.26-8.31-23.35-19.32h-25.64C403.27,475.08,424.36,494.72,450,494.72z"/>
				<path style="fill:#AC403E;" d="M412.87,454.43l0.44,0.34c3.05,2.45,4.64,6.28,4.21,10.16l-0.07,0.55
					c-0.8,7.26,5.34,13.4,12.6,12.59l0.55-0.07c3.88-0.42,7.71,1.17,10.16,4.22l0.34,0.43c4.57,5.71,13.23,5.71,17.8,0l0.34-0.43
					c2.45-3.05,6.28-4.64,10.16-4.22l0.55,0.07c7.26,0.81,13.4-5.33,12.6-12.59l-0.07-0.55c-0.43-3.88,1.16-7.71,4.21-10.16
					l0.44-0.34c1.54-1.23,2.66-2.76,3.36-4.43h-17.12c-2.09,11.01-11.74,19.32-23.37,19.32c-11.59,0-21.26-8.31-23.35-19.32h-17.14
					C410.21,451.67,411.33,453.2,412.87,454.43z"/>
			</g>
		</g>
		<g>
			<g>
				<rect x="200" y="450" style="fill:#AC403E;" width="50" height="50"/>
			</g>
			<path style="fill:#DD9049;" d="M225,459.33c-8.65,0-15.67,7.01-15.67,15.67c0,8.65,7.02,15.67,15.67,15.67
				c8.66,0,15.67-7.02,15.67-15.67C240.67,466.34,233.66,459.33,225,459.33z M225,482.57c-4.18,0-7.58-3.39-7.58-7.57
				c0-4.19,3.4-7.58,7.58-7.58c4.19,0,7.58,3.39,7.58,7.58C232.58,479.18,229.19,482.57,225,482.57z"/>
		</g>
		<g>
			<g>
				<rect x="450" y="250" style="fill:#DD9049;" width="50" height="50"/>
			</g>
			<path style="fill:#AC403E;" d="M475,259.33c-8.65,0-15.67,7.01-15.67,15.67c0,8.65,7.02,15.67,15.67,15.67
				c8.66,0,15.67-7.02,15.67-15.67C490.67,266.34,483.66,259.33,475,259.33z M475,282.57c-4.18,0-7.58-3.39-7.58-7.57
				c0-4.19,3.4-7.58,7.58-7.58c4.19,0,7.58,3.39,7.58,7.58C482.58,279.18,479.19,282.57,475,282.57z"/>
		</g>
		<g>
			<g>
				<rect y="200" style="fill:#DD9049;" width="50" height="50"/>
			</g>
			<path style="fill:#AC403E;" d="M25,209.33c-8.65,0-15.67,7.01-15.67,15.67c0,8.65,7.02,15.67,15.67,15.67
				c8.66,0,15.67-7.02,15.67-15.67C40.67,216.34,33.66,209.33,25,209.33z M25,232.57c-4.18,0-7.58-3.39-7.58-7.57
				c0-4.19,3.4-7.58,7.58-7.58c4.19,0,7.58,3.39,7.58,7.58C32.58,229.18,29.19,232.57,25,232.57z"/>
		</g>
		<g>
			<g>
				<rect x="250" style="fill:#AC403E;" width="50" height="50"/>
			</g>
			<path style="fill:#DD9049;" d="M275,9.33c-8.65,0-15.67,7.01-15.67,15.67c0,8.65,7.02,15.67,15.67,15.67
				c8.66,0,15.67-7.02,15.67-15.67C290.67,16.34,283.66,9.33,275,9.33z M275,32.57c-4.18,0-7.58-3.39-7.58-7.57
				c0-4.19,3.4-7.58,7.58-7.58c4.19,0,7.58,3.39,7.58,7.58C282.58,29.18,279.19,32.57,275,32.57z"/>
		</g>
	</g>
	<g>
		<path style="fill:#4F323B;" d="M450,248.54c0,8.82-0.58,17.5-1.7,26.01c-0.05,0.35-0.09,0.7-0.14,1.05
			c-6.14,44.69-27.25,84.65-58.16,114.72c-23.51,22.88-52.69,40.05-85.25,49.23c-17.4,4.91-35.76,7.53-54.75,7.53
			c-25.56,0-49.99-4.75-72.45-13.42c-25.46-9.83-48.39-24.69-67.55-43.34c-28.32-27.55-48.41-63.39-56.3-103.57
			c-0.13-0.65-0.25-1.31-0.37-1.96C51.14,273.04,50,260.92,50,248.54c0-35.86,9.58-69.5,26.34-98.54
			c10.85-18.82,24.72-35.7,40.95-50C152.6,68.89,199.08,50,250,50C360.46,50,450,138.89,450,248.54z"/>
		<path style="fill:#68434D;" d="M448.16,275.6c-3.69,26.89-12.81,52.07-26.22,74.4c-8.87,14.8-19.62,28.34-31.94,40.32
			c-3.45,3.35-7.01,6.58-10.7,9.68c-21.43,18.06-46.76,31.72-74.55,39.55c-17.4,4.91-35.76,7.53-54.75,7.53
			c-25.56,0-49.99-4.75-72.45-13.42c-25.46-9.83-48.39-24.69-67.55-43.34c-28.32-27.55-48.41-63.39-56.3-103.57
			c-0.13-0.65-0.25-1.31-0.37-1.96l142.92-82.54L448.16,275.6z"/>
	</g>
	<g>
		<path style="fill:#FCC86D;" d="M309.294,247.846H190l0,0c0-30.794,24.964-55.758,55.758-55.758h7.779
			C284.33,192.089,309.294,217.052,309.294,247.846L309.294,247.846z"/>
		<path style="fill:#FCC86D;" d="M190,280.419h119.294l0,0c0,10.814-8.767,19.581-19.581,19.581h-80.131
			C198.767,300,190,291.233,190,280.419L190,280.419z"/>
		<rect x="190" y="255.665" style="fill:#AC403E;" width="120" height="15.632"/>
		<rect x="184.122" y="271.298" style="fill:#56262F;" width="131.756" height="9.121"/>
		<rect x="184.122" y="246.456" style="fill:#B3CC6E;" width="131.756" height="10.776"/>
		<path style="fill:#FBF2D0;" d="M253.022,200.921c0,1.669-1.353,3.023-3.022,3.023s-3.023-1.353-3.023-3.023
			c0-1.669,1.353-3.023,3.023-3.023S253.022,199.252,253.022,200.921z"/>
		<circle style="fill:#FBF2D0;" cx="250" cy="212.033" r="3.022"/>
		<circle style="fill:#FBF2D0;" cx="250" cy="223.145" r="3.022"/>
		<path style="fill:#FBF2D0;" d="M265.695,200.921c0,1.669-1.353,3.023-3.022,3.023c-1.669,0-3.023-1.353-3.023-3.023
			c0-1.669,1.353-3.023,3.023-3.023C264.342,197.899,265.695,199.252,265.695,200.921z"/>
		<circle style="fill:#FBF2D0;" cx="262.673" cy="212.033" r="3.023"/>
		<circle style="fill:#FBF2D0;" cx="275.346" cy="212.033" r="3.023"/>
		<path style="fill:#FBF2D0;" d="M234.305,200.921c0,1.669,1.353,3.023,3.022,3.023c1.669,0,3.023-1.353,3.023-3.023
			c0-1.669-1.353-3.023-3.023-3.023C235.658,197.899,234.305,199.252,234.305,200.921z"/>
		<circle style="fill:#FBF2D0;" cx="237.327" cy="212.033" r="3.023"/>
		<circle style="fill:#FBF2D0;" cx="224.654" cy="212.033" r="3.023"/>
	</g>
	<g>
		
			<rect x="101.714" y="209.113" transform="matrix(-1.836970e-16 1 -1 -1.836970e-16 356.0392 68.2863)" style="fill:#B3CC6E;" width="84.326" height="6.099"/>
		<polygon style="fill:#AC403E;" points="180.867,205.295 106.886,205.295 116.892,301.379 170.861,301.379 		"/>
		<rect x="101.714" y="199.197" style="fill:#FBF2D0;" width="84.326" height="6.099"/>
		<rect x="107.992" y="189.593" style="fill:#FBF2D0;" width="71.768" height="9.604"/>
	</g>
	<g>
		<rect x="331.824" y="242.089" style="fill:#DD9049;" width="41.953" height="53.909"/>
		<rect x="329.823" y="242.089" style="fill:#FCC86D;" width="7.077" height="57.911"/>
		<rect x="342.964" y="242.089" style="fill:#FCC86D;" width="7.077" height="57.911"/>
		<rect x="356.106" y="242.089" style="fill:#FCC86D;" width="7.077" height="57.911"/>
		<rect x="369.248" y="242.089" style="fill:#FCC86D;" width="7.077" height="57.911"/>
		<rect x="325.649" y="260.765" style="fill:#AC403E;" width="54.85" height="39.235"/>
	</g>
	<g>
		<rect x="90" y="300" style="fill:#875C69;" width="320" height="20"/>
		<path style="fill:#4F323B;" d="M390,320v70.32c-36.07,35.11-85.49,56.76-140,56.76s-103.93-21.65-140-56.76V320H390z"/>
	</g>
	<g>
		<g>
			<path style="fill:#DD9049;" d="M281.367,174.33c0,8.65,7.01,15.67,15.67,15.67c8.65,0,15.67-7.02,15.67-15.67
				c0-8.66-7.02-15.67-15.67-15.67C288.377,158.66,281.367,165.67,281.367,174.33z M304.607,174.33c0,4.18-3.39,7.58-7.57,7.58
				c-4.19,0-7.58-3.4-7.58-7.58c0-4.19,3.39-7.58,7.58-7.58C301.217,166.75,304.607,170.14,304.607,174.33z"/>
			<path style="fill:#DD9049;" d="M315.977,174.33c0,8.65,7.01,15.67,15.67,15.67c8.65,0,15.67-7.02,15.67-15.67
				c0-8.66-7.02-15.67-15.67-15.67C322.987,158.66,315.977,165.67,315.977,174.33z M339.217,174.33c0,4.18-3.39,7.58-7.57,7.58
				c-4.19,0-7.58-3.4-7.58-7.58c0-4.19,3.39-7.58,7.58-7.58C335.827,166.75,339.217,170.14,339.217,174.33z"/>
			<path style="fill:#DD9049;" d="M350.587,174.33c0,8.65,7.01,15.67,15.67,15.67c8.65,0,15.67-7.02,15.67-15.67
				c0-8.66-7.02-15.67-15.67-15.67C357.597,158.66,350.587,165.67,350.587,174.33z M373.827,174.33c0,4.18-3.39,7.58-7.57,7.58
				c-4.19,0-7.58-3.4-7.58-7.58c0-4.19,3.39-7.58,7.58-7.58C370.437,166.75,373.827,170.14,373.827,174.33z"/>
		</g>
		<g>
			<path style="fill:#DD9049;" d="M143.876,252.952c-8.65,0-15.67,7.01-15.67,15.67c0,8.65,7.02,15.67,15.67,15.67
				c8.66,0,15.67-7.02,15.67-15.67C159.546,259.962,152.536,252.952,143.876,252.952z M143.876,276.192c-4.18,0-7.58-3.39-7.58-7.57
				c0-4.19,3.4-7.58,7.58-7.58c4.19,0,7.58,3.39,7.58,7.58C151.456,272.802,148.066,276.192,143.876,276.192z"/>
			<path style="fill:#DD9049;" d="M143.876,287.562c-8.65,0-15.67,7.01-15.67,15.67c0,8.65,7.02,15.67,15.67,15.67
				c8.66,0,15.67-7.02,15.67-15.67C159.546,294.572,152.536,287.562,143.876,287.562z M143.876,310.802c-4.18,0-7.58-3.39-7.58-7.57
				c0-4.19,3.4-7.58,7.58-7.58c4.19,0,7.58,3.39,7.58,7.58C151.456,307.412,148.066,310.802,143.876,310.802z"/>
			<path style="fill:#DD9049;" d="M143.876,322.172c-8.65,0-15.67,7.01-15.67,15.67c0,8.65,7.02,15.67,15.67,15.67
				c8.66,0,15.67-7.02,15.67-15.67C159.546,329.182,152.536,322.172,143.876,322.172z M143.876,345.412c-4.18,0-7.58-3.39-7.58-7.57
				c0-4.19,3.4-7.58,7.58-7.58c4.19,0,7.58,3.39,7.58,7.58C151.456,342.022,148.066,345.412,143.876,345.412z"/>
		</g>
	</g>
	<g>
		<path style="fill:#FCC86D;" d="M150,100c0,27.61-22.39,50-50,50H76.34c10.85-18.82,24.72-35.7,40.95-50H150z"/>
		<path style="fill:#FBF2D0;" d="M421.94,350c-8.87,14.8-19.62,28.34-31.94,40.32c-3.45,3.35-7.01,6.58-10.7,9.68H350
			c0-27.61,22.39-50,50-50H421.94z"/>
	</g>
	<g>
		<g>
			<g>
				<path style="fill:#FCC86D;" d="M411.07,222.273c-3.383,0-6.136-2.753-6.136-6.137c0-3.383,2.753-6.136,6.136-6.136
					c3.384,0,6.137,2.753,6.137,6.136C417.207,219.52,414.454,222.273,411.07,222.273z"/>
				<path style="fill:#FCC86D;" d="M433.863,222.273c-3.383,0-6.136-2.753-6.136-6.137c0-3.383,2.753-6.136,6.136-6.136
					c3.384,0,6.137,2.753,6.137,6.136C440,219.52,437.247,222.273,433.863,222.273z"/>
				<path style="fill:#FCC86D;" d="M411.07,239.339c-3.383,0-6.136-2.753-6.136-6.137c0-3.383,2.753-6.136,6.136-6.136
					c3.384,0,6.137,2.753,6.137,6.136C417.207,236.586,414.454,239.339,411.07,239.339z"/>
				<path style="fill:#FCC86D;" d="M433.863,239.339c-3.383,0-6.136-2.753-6.136-6.137c0-3.383,2.753-6.136,6.136-6.136
					c3.384,0,6.137,2.753,6.137,6.136C440,236.586,437.247,239.339,433.863,239.339z"/>
			</g>
		</g>
		<g>
			<g>
				<g>
					<path style="fill:#875C69;" d="M213.603,122.273c-3.383,0-6.136-2.753-6.136-6.137c0-3.383,2.753-6.136,6.136-6.136
						c3.384,0,6.137,2.753,6.137,6.136C219.74,119.52,216.987,122.273,213.603,122.273z"/>
					<path style="fill:#875C69;" d="M236.396,122.273c-3.383,0-6.136-2.753-6.136-6.137c0-3.383,2.753-6.136,6.136-6.136
						c3.384,0,6.137,2.753,6.137,6.136C242.533,119.52,239.78,122.273,236.396,122.273z"/>
					<path style="fill:#875C69;" d="M213.603,139.339c-3.383,0-6.136-2.753-6.136-6.137c0-3.383,2.753-6.136,6.136-6.136
						c3.384,0,6.137,2.753,6.137,6.136C219.74,136.586,216.987,139.339,213.603,139.339z"/>
					<path style="fill:#875C69;" d="M236.396,139.339c-3.383,0-6.136-2.753-6.136-6.137c0-3.383,2.753-6.136,6.136-6.136
						c3.384,0,6.137,2.753,6.137,6.136C242.533,136.586,239.78,139.339,236.396,139.339z"/>
				</g>
			</g>
			<g>
				<g>
					<path style="fill:#875C69;" d="M166.136,122.273c-3.383,0-6.136-2.753-6.136-6.137c0-3.383,2.753-6.136,6.136-6.136
						c3.384,0,6.137,2.753,6.137,6.136C172.273,119.52,169.52,122.273,166.136,122.273z"/>
					<path style="fill:#875C69;" d="M188.929,122.273c-3.383,0-6.136-2.753-6.136-6.137c0-3.383,2.753-6.136,6.136-6.136
						c3.384,0,6.137,2.753,6.137,6.136C195.066,119.52,192.313,122.273,188.929,122.273z"/>
					<path style="fill:#875C69;" d="M166.136,139.339c-3.383,0-6.136-2.753-6.136-6.137c0-3.383,2.753-6.136,6.136-6.136
						c3.384,0,6.137,2.753,6.137,6.136C172.273,136.586,169.52,139.339,166.136,139.339z"/>
					<path style="fill:#875C69;" d="M188.929,139.339c-3.383,0-6.136-2.753-6.136-6.137c0-3.383,2.753-6.136,6.136-6.136
						c3.384,0,6.137,2.753,6.137,6.136C195.066,136.586,192.313,139.339,188.929,139.339z"/>
				</g>
			</g>
		</g>
		<g>
			<g>
				<g>
					<path style="fill:#AC403E;" d="M321.07,342.273c-3.383,0-6.136-2.753-6.136-6.137c0-3.383,2.753-6.136,6.136-6.136
						c3.384,0,6.137,2.753,6.137,6.136C327.207,339.52,324.454,342.273,321.07,342.273z"/>
					<path style="fill:#AC403E;" d="M343.863,342.273c-3.383,0-6.136-2.753-6.136-6.137c0-3.383,2.753-6.136,6.136-6.136
						c3.384,0,6.137,2.753,6.137,6.136C350,339.52,347.247,342.273,343.863,342.273z"/>
					<path style="fill:#AC403E;" d="M321.07,359.339c-3.383,0-6.136-2.753-6.136-6.137c0-3.383,2.753-6.136,6.136-6.136
						c3.384,0,6.137,2.753,6.137,6.136C327.207,356.586,324.454,359.339,321.07,359.339z"/>
					<path style="fill:#AC403E;" d="M343.863,359.339c-3.383,0-6.136-2.753-6.136-6.137c0-3.383,2.753-6.136,6.136-6.136
						c3.384,0,6.137,2.753,6.137,6.136C350,356.586,347.247,359.339,343.863,359.339z"/>
				</g>
			</g>
			<g>
				<g>
					<path style="fill:#AC403E;" d="M273.603,342.273c-3.383,0-6.136-2.753-6.136-6.137c0-3.383,2.753-6.136,6.136-6.136
						c3.384,0,6.137,2.753,6.137,6.136C279.74,339.52,276.987,342.273,273.603,342.273z"/>
					<path style="fill:#AC403E;" d="M296.396,342.273c-3.383,0-6.136-2.753-6.136-6.137c0-3.383,2.753-6.136,6.136-6.136
						c3.384,0,6.137,2.753,6.137,6.136C302.533,339.52,299.78,342.273,296.396,342.273z"/>
					<path style="fill:#AC403E;" d="M273.603,359.339c-3.383,0-6.136-2.753-6.136-6.137c0-3.383,2.753-6.136,6.136-6.136
						c3.384,0,6.137,2.753,6.137,6.136C279.74,356.586,276.987,359.339,273.603,359.339z"/>
					<path style="fill:#AC403E;" d="M296.396,359.339c-3.383,0-6.136-2.753-6.136-6.137c0-3.383,2.753-6.136,6.136-6.136
						c3.384,0,6.137,2.753,6.137,6.136C302.533,356.586,299.78,359.339,296.396,359.339z"/>
				</g>
			</g>
		</g>
	</g>
	<g>
		<g>
			<g>
				<polygon style="fill:#AC403E;" points="162.199,388.278 142.228,375.598 144.372,372.221 162.199,383.54 181.092,371.54 
					199.992,383.54 218.893,371.54 237.797,383.54 255.629,372.221 257.772,375.598 237.797,388.278 218.893,376.278 
					199.992,388.278 181.092,376.278 				"/>
			</g>
			<g>
				<polygon style="fill:#AC403E;" points="162.199,400.278 142.228,387.598 144.372,384.221 162.199,395.54 181.092,383.54 
					199.992,395.54 218.893,383.54 237.797,395.54 255.629,384.221 257.772,387.598 237.797,400.278 218.893,388.278 
					199.992,400.278 181.092,388.278 				"/>
			</g>
			<g>
				<polygon style="fill:#AC403E;" points="162.199,412.278 142.228,399.598 144.372,396.221 162.199,407.54 181.092,395.54 
					199.992,407.54 218.893,395.54 237.797,407.54 255.629,396.221 257.772,399.598 237.797,412.278 218.893,400.278 
					199.992,412.278 181.092,400.278 				"/>
			</g>
		</g>
		<g>
			<path style="fill:#AC403E;" d="M344.43,122.41l-19.97-12.68l2.14-3.38l17.83,11.32l18.89-12l18.9,12l11.44-7.26
				c0.95,0.97,1.89,1.96,2.82,2.95l-14.26,9.05l-18.9-12L344.43,122.41z"/>
			<path style="fill:#AC403E;" d="M344.43,134.41l-19.97-12.68l2.14-3.38l17.83,11.32l18.89-12l18.9,12l18.44-11.71
				c2.52,2.86,4.95,5.79,7.3,8.79l-6.84-4.34l-18.9,12l-18.9-12L344.43,134.41z"/>
			<path style="fill:#AC403E;" d="M421.12,145.71l-1.1,0.7l-18.9-12l-18.9,12l-18.9-12l-18.89,12l-19.97-12.68l2.14-3.38
				l17.83,11.32l18.89-12l18.9,12l18.9-12l16.45,10.44C418.78,141.96,419.97,143.82,421.12,145.71z"/>
		</g>
	</g>
</g>
</svg>
