<?xml version="1.0" encoding="UTF-8" standalone="no"?>
<!-- Created with Inkscape (http://www.inkscape.org/) -->

<svg
   width="210mm"
   height="297mm"
   viewBox="0 0 210 297"
   version="1.1"
   id="svg1"
   inkscapeVersion="1.3 (0e150ed6c4, 2023-07-21)"
   sodipodiDocname="burger.svg"
   xmlnsInkscape="http://www.inkscape.org/namespaces/inkscape"
   xmlnsSodipodi="http://sodipodi.sourceforge.net/DTD/sodipodi-0.dtd"
   xmlns="http://www.w3.org/2000/svg"
   xmlnsSvg="http://www.w3.org/2000/svg">
  <sodipodNamedview
     id="namedview1"
     pagecolor="#ffffff"
     bordercolor="#000000"
     borderopacity="0.25"
     inkscapeShowpageshadow="2"
     inkscapePageopacity="0.0"
     inkscapePagecheckerboard="0"
     inkscapeDeskcolor="#d1d1d1"
     inkscapeDocument-units="mm"
     inkscapeZoom="0.51717104"
     inkscapeCx="380.91847"
     inkscapeCy="573.3113"
     inkscapeWindow-width="1920"
     inkscapeWindow-height="1017"
     inkscapeWindow-x="-8"
     inkscapeWindow-y="-8"
     inkscapeWindow-maximized="1"
     inkscapeCurrent-layer="layer1" />
  <defs
     id="defs1" />
  <g
     inkscapeLabel="Warstwa 1"
     inkscapeGroupmode="layer"
     id="layer1">
    <g
       id="g120"
       transform="matrix(0.26458333,0,0,0.26458333,-1082.2784,-714.29933)">&#10;	<path
   style="fill:#fdbe10"
   d="m 4794.262,3229.103 c 0.564,-5.067 0.931,-10.161 0.931,-15.323 0,-114.361 -138.536,-207.066 -309.425,-207.066 -170.896,0 -309.438,92.705 -309.438,207.066 0,5.162 0.38,10.256 0.931,15.323 z"
   id="path112" />
&#10;	<path
   style="fill:#fdbe10"
   d="m 4177.206,3420.332 c -0.522,4.008 -0.876,8.07 -0.876,12.227 0,46.163 32.801,83.563 73.266,83.563 h 472.332 c 40.47,0 73.265,-37.4 73.265,-83.563 0,-4.156 -0.347,-8.219 -0.862,-12.227 z"
   id="path113" />
&#10;	<path
   style="fill:#673b16"
   d="m 4812.5,3341.728 c 0,32.388 -24.188,58.648 -54.021,58.648 h -541.957 c -29.833,0 -54.021,-26.261 -54.021,-58.648 v 0 c 0,-32.4 24.188,-58.671 54.021,-58.671 h 541.957 c 29.833,0 54.021,26.27 54.021,58.671 z"
   id="path114" />
&#10;	<rect
   x="4191.3008"
   y="3229.103"
   style="fill:#e31c3a"
   width="587.76599"
   height="38.942001"
   id="rect114" />
&#10;	<polygon
   style="fill:#fbed21"
   points="4276.819,3422.642 4354.982,3467.963 4407.625,3422.642 4779.217,3422.642 4779.217,3401.992 4184.223,3401.992 4184.223,3422.642 "
   id="polygon114" />
&#10;	<path
   style="fill:#94b73d"
   d="m 4779.217,3264.934 h -594.994 v 20.649 h 282.328 c -0.902,3.152 -1.426,6.42 -1.426,9.802 0,23.384 22.641,42.35 50.557,42.35 13.709,0 26.111,-4.578 35.215,-11.996 13.802,22.008 39.471,36.829 68.924,36.829 44.037,0 79.738,-33.039 79.738,-73.812 0,-1.073 -0.122,-2.119 -0.17,-3.173 h 79.828 z"
   id="path115" />
&#10;	<path
   style="fill:#f1932e"
   d="m 4354.1,3132.987 c 0,8.327 -15.039,15.079 -33.604,15.079 -18.57,0 -33.617,-6.752 -33.617,-15.079 0,-8.328 15.047,-15.079 33.617,-15.079 18.565,0 33.604,6.751 33.604,15.079 z"
   id="path116" />
&#10;	<path
   style="fill:#f1932e"
   d="m 4443.327,3087.313 c 0,8.327 -15.046,15.087 -33.616,15.087 -18.558,0 -33.603,-6.76 -33.603,-15.087 0,-8.32 15.045,-15.066 33.603,-15.066 18.57,0 33.616,6.746 33.616,15.066 z"
   id="path117" />
&#10;	<path
   style="fill:#f1932e"
   d="m 4523.371,3129.17 c 0,8.328 -15.045,15.079 -33.609,15.079 -18.57,0 -33.609,-6.751 -33.609,-15.079 0,-8.328 15.039,-15.073 33.609,-15.073 18.564,0 33.609,6.745 33.609,15.073 z"
   id="path118" />
&#10;	<path
   style="fill:#f1932e"
   d="m 4608.497,3092.53 c 0,8.327 -15.046,15.079 -33.61,15.079 -18.557,0 -33.604,-6.752 -33.604,-15.079 0,-8.327 15.047,-15.079 33.604,-15.079 18.564,0 33.61,6.752 33.61,15.079 z"
   id="path119" />
&#10;	<path
   style="fill:#f1932e"
   d="m 4673.318,3144.249 c 0,8.328 -15.045,15.08 -33.609,15.08 -18.57,0 -33.609,-6.752 -33.609,-15.08 0,-8.327 15.039,-15.079 33.609,-15.079 18.564,0 33.609,6.752 33.609,15.079 z"
   id="path120" />
&#10;</g>
  </g>
</svg>
