<?xml version="1.0" encoding="UTF-8" standalone="no"?>
<!-- Created with Inkscape (http://www.inkscape.org/) -->

<svg
   width="210mm"
   height="297mm"
   viewBox="0 0 210 297"
   version="1.1"
   id="svg1"
   inkscape:version="1.3 (0e150ed6c4, 2023-07-21)"
   sodipodi:docname="nuggets.svg"
   xmlns:inkscape="http://www.inkscape.org/namespaces/inkscape"
   xmlns:sodipodi="http://sodipodi.sourceforge.net/DTD/sodipodi-0.dtd"
   xmlns="http://www.w3.org/2000/svg"
   xmlns:svg="http://www.w3.org/2000/svg">
  <sodipodi:namedview
     id="namedview1"
     pagecolor="#ffffff"
     bordercolor="#000000"
     borderopacity="0.25"
     inkscape:showpageshadow="2"
     inkscape:pageopacity="0.0"
     inkscape:pagecheckerboard="0"
     inkscape:deskcolor="#d1d1d1"
     inkscape:document-units="mm"
     inkscape:zoom="0.51717104"
     inkscape:cx="380.91847"
     inkscape:cy="573.3113"
     inkscape:window-width="1920"
     inkscape:window-height="1017"
     inkscape:window-x="-8"
     inkscape:window-y="-8"
     inkscape:window-maximized="1"
     inkscape:current-layer="layer1" />
  <defs
     id="defs1" />
  <g
     inkscape:label="Warstwa 1"
     inkscape:groupmode="layer"
     id="layer1">
    <g
       id="g272"
       transform="matrix(0.26458333,0,0,0.26458333,-423.89124,-387.87948)">&#10;	<g
   id="g261">&#10;		<path
   style="fill:#f6c914"
   d="m 1970.383,1941.101 c -3.063,-10.714 -11.189,-18.619 -21.038,-21.851 4.672,-12.126 1.583,-25.204 -6.785,-33.941 10,-7.885 14.808,-21.292 11.091,-34.299 -3.464,-12.116 -13.403,-20.605 -24.983,-22.845 0.145,-10.688 -4.923,-20.675 -13.659,-26.854 6.983,-7.991 9.914,-19.23 6.78,-30.188 -5.9,-20.636 -30.004,-30.011 -48.34,-18.463 -7.502,-11.727 -22.05,-17.682 -36.124,-13.659 -7.49,2.142 -13.604,6.753 -17.709,12.702 -8.019,-8.76 -20.557,-12.787 -32.751,-9.301 -8.469,2.422 -15.162,8.009 -19.203,15.101 -7.178,-3.884 -15.817,-5.086 -24.283,-2.665 -17.508,5.003 -27.875,23.745 -21.614,41.741 -22.337,-1.312 -39.102,19.812 -33,41.158 3.62,12.662 14.306,21.366 26.55,23.118 -9.47,7.951 -13.938,20.996 -10.32,33.653 3.737,13.07 14.999,21.931 27.734,23.271 -9.516,16.799 -1.781,39.541 14.389,48.199 -13.189,7.016 -20.159,22.497 -15.888,37.434 7.607,26.62 27.558,26.31 34.277,26.897 -4.432,7.413 -5.938,16.544 -3.379,25.498 3.898,13.637 15.991,22.684 29.401,23.389 4.206,18.525 22.905,28.949 40.397,23.947 9.938,-2.843 17.428,-10.043 21.046,-18.926 7.755,10.721 21.63,16.016 35.086,12.167 9.542,-2.726 16.839,-9.472 20.609,-17.864 7.637,5.132 17.397,6.999 26.938,4.273 20.593,-5.887 30.008,-29.938 18.493,-48.289 18.403,-4.48 28.386,-23.103 23.473,-40.286 -2.611,-9.132 -8.91,-16.188 -16.806,-20.087 8.981,-7.999 13.145,-20.688 9.618,-33.03 z"
   id="path251" />
&#10;		<path
   style="fill:#f7b318"
   d="m 2107.291,1942.537 c 0.464,-11.135 -4.764,-21.194 -13.093,-27.363 8.249,-10.041 9.431,-23.424 4.236,-34.349 11.974,-4.341 20.757,-15.553 21.318,-29.07 0.525,-12.59 -6.241,-23.775 -16.524,-29.545 3.498,-10.099 1.831,-21.172 -4.52,-29.785 9.144,-5.389 15.461,-15.132 15.936,-26.526 0.892,-21.442 -19.04,-37.922 -40.077,-32.734 -3.432,-13.487 -15.368,-23.718 -29.991,-24.33 -7.785,-0.324 -15.041,2.133 -20.81,6.488 -4.854,-10.84 -15.489,-18.605 -28.161,-19.133 -8.799,-0.362 -16.913,2.835 -22.979,8.293 -5.592,-5.946 -13.414,-9.805 -22.211,-10.172 -18.193,-0.759 -33.928,13.769 -33.647,32.827 -20.792,-8.275 -43.348,6.501 -44.273,28.685 -0.548,13.155 6.857,24.782 17.929,30.295 -11.491,4.569 -19.835,15.545 -20.383,28.7 -0.566,13.579 7.338,25.531 19.003,30.81 -14.317,12.954 -14.128,36.973 -1.505,50.283 -14.727,2.511 -26.213,15.012 -26.857,30.534 -1.155,27.66 17.878,33.644 24.072,36.318 -6.538,5.636 -10.839,13.833 -11.23,23.137 -0.587,14.17 8.043,26.56 20.551,31.448 -1.836,18.913 12.633,34.685 30.812,35.443 10.327,0.431 19.703,-4.049 25.932,-11.342 3.989,12.615 15.493,22.006 29.477,22.587 9.914,0.411 18.965,-3.691 25.182,-10.473 5.634,7.273 14.313,12.117 24.224,12.532 21.402,0.889 37.902,-18.98 32.748,-40.018 18.879,1.537 34.214,-12.999 34.955,-30.854 0.398,-9.492 -3.364,-18.171 -9.632,-24.356 11.039,-4.775 18.984,-15.508 19.518,-28.33 z"
   id="path252" />
&#10;		<path
   style="fill:#f6c914"
   d="m 2280.164,1931.695 c -0.915,-11.105 -7.343,-20.441 -16.374,-25.533 6.946,-10.981 6.465,-24.414 -0.04,-34.61 11.346,-5.788 18.676,-18.002 17.563,-31.479 -1.036,-12.56 -9.131,-22.823 -20.049,-27.28 2.222,-10.454 -0.798,-21.239 -8.165,-29 8.405,-6.474 13.471,-16.928 12.535,-28.291 -1.768,-21.385 -23.58,-35.279 -43.815,-27.527 -5.075,-12.964 -18.185,-21.639 -32.771,-20.436 -7.764,0.638 -14.66,3.972 -19.845,9.007 -6.161,-10.156 -17.67,-16.547 -30.312,-15.505 -8.776,0.724 -16.434,4.901 -21.776,11.07 -6.284,-5.212 -14.523,-8.077 -23.299,-7.348 -18.148,1.493 -31.965,17.853 -29.336,36.729 -21.652,-5.641 -42.212,11.81 -40.385,33.937 1.083,13.123 9.866,23.745 21.532,27.847 -10.834,5.957 -17.76,17.878 -16.678,30.996 1.116,13.549 10.437,24.432 22.665,28.229 -12.608,14.626 -9.452,38.438 4.721,50.085 -14.302,4.31 -24.155,18.134 -22.878,33.616 2.275,27.595 21.899,31.179 28.377,33.068 -5.79,6.399 -9.047,15.065 -8.285,24.348 1.169,14.133 11.266,25.362 24.282,28.667 0.515,18.996 16.821,32.857 34.956,31.364 10.3,-0.852 19.053,-6.455 24.331,-14.462 5.516,12.027 18.094,19.921 32.042,18.772 9.889,-0.815 18.365,-6.006 23.693,-13.503 6.491,6.521 15.699,10.253 25.591,9.438 21.345,-1.757 35.263,-23.513 27.549,-43.755 18.926,-0.805 32.343,-17.127 30.873,-34.939 -0.779,-9.468 -5.583,-17.615 -12.568,-22.977 10.367,-6.102 16.922,-17.735 15.866,-30.528 z"
   id="path253" />
&#10;		<path
   style="fill:#f7b318"
   d="m 2315.654,2037.919 c 1.363,-11.059 -3.034,-21.509 -10.838,-28.329 9.03,-9.341 11.289,-22.588 6.996,-33.896 12.284,-3.358 21.942,-13.825 23.596,-27.249 1.537,-12.511 -4.3,-24.206 -14.085,-30.788 4.304,-9.784 3.538,-20.956 -2.098,-30.051 9.548,-4.635 16.631,-13.838 18.027,-25.151 2.616,-21.3 -15.916,-39.342 -37.304,-35.864 -2.332,-13.723 -13.403,-24.884 -27.93,-26.672 -7.734,-0.954 -15.161,0.909 -21.264,4.784 -3.966,-11.193 -13.935,-19.796 -26.527,-21.345 -8.737,-1.074 -17.085,1.455 -23.566,6.408 -5.099,-6.376 -12.579,-10.856 -21.322,-11.928 -18.071,-2.227 -34.929,10.984 -36.191,29.998 -20.056,-9.926 -43.729,2.98 -46.441,25.016 -1.607,13.066 4.834,25.259 15.421,31.645 -11.82,3.626 -21.024,13.889 -22.635,26.956 -1.66,13.49 5.252,26.045 16.454,32.251 -15.318,11.751 -17.069,35.709 -5.563,49.995 -14.881,1.313 -27.339,12.844 -29.236,28.263 -3.381,27.479 15.104,34.979 21.064,38.146 -6.973,5.085 -11.924,12.909 -13.066,22.153 -1.727,14.075 5.873,27.125 17.947,33.004 -3.357,18.702 9.789,35.594 27.85,37.819 10.26,1.26 19.965,-2.445 26.764,-9.214 2.957,12.896 13.664,23.186 27.555,24.893 9.846,1.212 19.2,-2.145 25.945,-8.402 5.028,7.704 13.284,13.233 23.136,14.443 21.255,2.619 39.309,-15.849 35.871,-37.241 18.692,3.061 35.149,-10.189 37.334,-27.929 1.159,-9.428 -1.887,-18.385 -7.634,-25.053 11.387,-3.864 20.174,-13.92 21.74,-26.662 z"
   id="path254" />
&#10;		<path
   style="fill:#fde712"
   d="m 1999.648,2110.132 c 8.92,-6.679 13.414,-17.082 12.928,-27.438 12.991,0.047 24.112,-7.5 29.297,-18.428 10.928,6.535 25.167,6.25 35.998,-1.854 10.089,-7.554 14.479,-19.865 12.451,-31.481 10.036,-3.672 17.566,-11.96 20.226,-22.325 9.952,3.677 21.498,2.414 30.625,-4.417 17.175,-12.866 17.353,-38.726 0.037,-51.747 8.282,-11.19 8.663,-26.902 -0.107,-38.624 -4.67,-6.235 -11.159,-10.303 -18.181,-12.023 5.329,-10.612 4.631,-23.759 -2.973,-33.915 -5.279,-7.046 -12.886,-11.317 -20.951,-12.563 1.072,-8.09 -0.879,-16.59 -6.157,-23.638 -10.911,-14.583 -32.116,-17.589 -46.705,-5.33 -6.732,-21.342 -32.438,-29.48 -50.211,-16.175 -10.537,7.889 -14.869,20.982 -12.146,33.044 -10.801,-6.019 -24.581,-5.547 -35.117,2.342 -10.881,8.147 -15.149,21.824 -11.865,34.202 -19.09,-2.905 -37.583,12.423 -39.918,30.614 -11.25,-9.822 -28.199,-10.821 -40.635,-1.512 -22.164,16.591 -14.77,35.121 -12.928,41.614 -8.499,-1.508 -17.569,0.34 -25.028,5.92 -11.353,8.502 -15.5,23.022 -11.381,35.804 -15.815,10.528 -18.893,31.713 -7.99,46.282 6.196,8.272 15.592,12.706 25.182,12.922 -7.256,11.062 -7.26,25.913 1.131,37.117 5.943,7.941 14.843,12.361 24.031,12.893 -2.077,8.967 -0.344,18.749 5.604,26.693 12.833,17.145 38.659,17.376 51.706,0.083 10.739,15.599 31.697,18.295 46.005,7.584 7.604,-5.696 11.952,-14.095 12.784,-22.858 10.671,5.536 24.012,4.908 34.288,-2.786 z"
   id="path255" />
&#10;		<path
   style="fill:#f7b318"
   d="m 1749.341,1848.009 c 0,4.273 -3.464,7.736 -7.737,7.736 -4.275,0 -7.738,-3.463 -7.738,-7.736 0,-4.272 3.463,-7.737 7.738,-7.737 4.272,-10e-4 7.737,3.464 7.737,7.737 z"
   id="path256" />
&#10;		<circle
   style="fill:#f7b318"
   cx="1773.884"
   cy="1795.208"
   r="13.338"
   id="circle256" />
&#10;		<circle
   style="fill:#f7b318"
   cx="1824.866"
   cy="1812.494"
   r="8.783"
   id="circle257" />
&#10;		<path
   style="fill:#f7b318"
   d="m 1798.353,1920.334 c 0,6.757 -5.477,12.234 -12.234,12.234 -6.757,0 -12.235,-5.478 -12.235,-12.234 0,-6.756 5.478,-12.234 12.235,-12.234 6.757,0 12.234,5.477 12.234,12.234 z"
   id="path257" />
&#10;		<path
   style="fill:#f6c914"
   d="m 1987.04,1944.627 c 0,6.658 -5.4,12.059 -12.059,12.059 -6.66,0 -12.059,-5.4 -12.059,-12.059 0,-6.66 5.399,-12.059 12.059,-12.059 6.659,0 12.059,5.399 12.059,12.059 z"
   id="path258" />
&#10;		<path
   style="fill:#f6c914"
   d="m 2064.348,1938.622 c 0,3.344 -2.709,6.055 -6.054,6.055 -3.345,0 -6.057,-2.711 -6.057,-6.055 0,-3.345 2.713,-6.054 6.057,-6.054 3.344,0 6.054,2.709 6.054,6.054 z"
   id="path259" />
&#10;		<path
   style="fill:#f6c914"
   d="m 2083.284,1890.769 c 0,3.463 -2.81,6.271 -6.271,6.271 -3.464,0 -6.271,-2.808 -6.271,-6.271 0,-3.461 2.806,-6.27 6.271,-6.27 3.461,10e-4 6.271,2.809 6.271,6.27 z"
   id="path260" />
&#10;		<path
   style="fill:#f6c914"
   d="m 2108.04,1937.553 c 0,2.754 -2.229,4.984 -4.985,4.984 -2.75,0 -4.984,-2.23 -4.984,-4.984 0,-2.754 2.235,-4.984 4.984,-4.984 2.756,-10e-4 4.985,2.229 4.985,4.984 z"
   id="path261" />
&#10;	</g>
&#10;	<g
   id="g271">&#10;		<path
   style="fill:#dce9ec"
   d="m 2330.945,1956.686 c -10.601,77.037 -42.272,249.423 -86.853,360.199 h -457.524 c -22.847,-56.885 -40.054,-120.331 -52.703,-179.792 -10.876,-51.199 -19.343,-105.829 -22.412,-134.376 z"
   id="path262" />
&#10;		<g
   id="g270">&#10;			<path
   style="fill:#53c5d5"
   d="m 1787.228,1997.083 v 39.055 h -71.393 c -3.042,-20.96 -4.381,-33.422 -4.381,-33.422 z"
   id="path263" />
&#10;			<rect
   x="1787.223"
   y="2036.142"
   style="fill:#53c5d5"
   width="100.958"
   height="100.958"
   id="rect263" />
&#10;			<polygon
   style="fill:#53c5d5"
   points="1888.182,1989.588 1989.138,1982.071 1989.138,2036.138 1888.182,2036.138 "
   id="polygon263" />
&#10;			<rect
   x="1989.14"
   y="2036.142"
   style="fill:#53c5d5"
   width="100.956"
   height="100.958"
   id="rect264" />
&#10;			<rect
   x="1888.181"
   y="2137.1001"
   style="fill:#53c5d5"
   width="100.959"
   height="100.957"
   id="rect265" />
&#10;			<polygon
   style="fill:#53c5d5"
   points="2090.092,1974.58 2191.046,1967.086 2191.046,2036.138 2090.092,2036.138 "
   id="polygon265" />
&#10;			<rect
   x="2090.0959"
   y="2137.0959"
   style="fill:#53c5d5"
   width="100.961"
   height="100.96"
   id="rect266" />
&#10;			<rect
   x="2191.0569"
   y="2036.1379"
   style="fill:#53c5d5"
   width="100.958"
   height="100.958"
   id="rect267" />
&#10;			<path
   style="fill:#53c5d5"
   d="m 2330.945,1956.686 c 0,0 -4.406,32.016 -13.033,79.453 h -25.888 v -76.566 z"
   id="path267" />
&#10;			<path
   style="fill:#53c5d5"
   d="m 2271.157,2238.047 c -8.199,27.612 -17.232,54.406 -27.064,78.838 h -53.046 v -78.838 z"
   id="path268" />
&#10;			<rect
   x="1787.228"
   y="2238.0471"
   style="fill:#53c5d5"
   width="100.954"
   height="78.837997"
   id="rect268" />
&#10;			<path
   style="fill:#53c5d5"
   d="m 1787.228,2137.093 v 100.954 h -27.886 c -10.377,-34.879 -18.777,-69.46 -25.476,-100.954 z"
   id="path269" />
&#10;			<rect
   x="1989.1379"
   y="2238.0471"
   style="fill:#53c5d5"
   width="100.955"
   height="78.837997"
   id="rect269" />
&#10;			<path
   style="fill:#53c5d5"
   d="m 2297.333,2137.096 h -5.309 v 22.561 c 1.821,-7.541 3.591,-15.068 5.309,-22.561 z"
   id="path270" />
&#10;		</g>
&#10;	</g>
&#10;</g>
  </g>
</svg>
