<?xml version="1.0" encoding="UTF-8" standalone="no"?>
<!-- Created with Inkscape (http://www.inkscape.org/) -->

<svg
   width="210mm"
   height="297mm"
   viewBox="0 0 210 297"
   version="1.1"
   id="svg1"
   inkscapeVersion="1.3 (0e150ed6c4, 2023-07-21)"
   sodipodiDocname="wrap.svg"
   xmlnsSnkscape="http://www.inkscape.org/namespaces/inkscape"
   xmlnsSodipodi="http://sodipodi.sourceforge.net/DTD/sodipodi-0.dtd"
   xmlns="http://www.w3.org/2000/svg"
   xmlnsSvg="http://www.w3.org/2000/svg">
  <sodipodiNamedview
     id="namedview1"
     pagecolor="#ffffff"
     bordercolor="#000000"
     borderopacity="0.25"
     inkscapeShowpageshadow="2"
     inkscapePageopacity="0.0"
     inkscapePagecheckerboard="0"
     inkscapeDeskcolor="#d1d1d1"
     inkscapeDocument-units="mm"
     inkscapeZoom="0.51717104"
     inkscapeCx="380.91847"
     inkscapeCy="573.3113"
     inkscapeWindow-width="1920"
     inkscapeWindow-height="1017"
     inkscapeWindow-x="-8"
     inkscapeWindow-y="-8"
     inkscapeWindow-maximized="1"
     inkscapeCurrent-layer="g272" />
  <defs
     id="defs1" />
  <g
     inkscapeLabel="Warstwa 1"
     inkscapeGroupmode="layer"
     id="layer1">
    <g
       id="g272"
       transform="matrix(0.26458333,0,0,0.26458333,-423.89124,-387.87948)">&#10;	&#10;	&#10;<g
   id="g406"
   transform="translate(-1231.7199,1238.5661)">&#10;	<path
   style="fill:#a6ca38"
   d="m 3032.543,529.809 c 1.415,24.602 -92.887,58.542 53.611,97.737 13.649,-16.442 98.646,-113.289 103.029,-125.739 12.886,-36.592 -59.627,-92.602 -84.681,-62.17 -18.937,23.003 19.573,38.117 18.664,48.235 -0.768,8.538 -9.81,13.38 -17.694,13.626 -13.477,0.417 -22.167,-16.636 -35.104,-19.838 -21.639,-5.355 -40.283,5.236 -37.825,48.149 z"
   id="path384" />
&#10;	<g
   id="g386">&#10;		<path
   style="fill:#8ba43c"
   d="m 3053.563,675.292 c -32.206,21.218 -75.906,17.657 -104.247,-10.681 -28.339,-28.339 -31.912,-72.054 -10.694,-104.259 z"
   id="path385" />
&#10;		<path
   style="fill:#dbe12b"
   d="m 3040.498,662.229 c -24.867,14.401 -57.216,10.941 -78.48,-10.322 -21.274,-21.275 -24.732,-53.625 -10.331,-78.491 z"
   id="path386" />
&#10;	</g>
&#10;	<g
   id="g397">&#10;		<path
   style="fill:#ca2027"
   d="m 3090.793,527.102 c -123.26,-74.065 -160.146,119.71 -47.818,154.477 112.364,34.779 191.36,-145.952 47.818,-154.477 z"
   id="path387" />
&#10;		<path
   style="fill:#ef5123"
   d="m 3084.404,547.689 c -89.553,-53.79 -116.338,86.99 -34.721,112.242 81.633,25.255 139.031,-106.033 34.721,-112.242 z"
   id="path388" />
&#10;		<path
   style="fill:#f7e8c4"
   d="m 3051.86,652.91 c -4.009,-1.245 -5.245,-8.727 -2.783,-16.696 2.474,-7.995 7.717,-13.447 11.74,-12.211 3.996,1.241 5.22,8.728 2.773,16.706 -2.477,7.976 -7.72,13.447 -11.73,12.201 z"
   id="path389" />
&#10;		<g
   id="g396">&#10;			<g
   id="g392">&#10;				<path
   style="fill:#f7e8c4"
   d="m 3057.62,561.223 c -2.316,3.515 -9.842,2.604 -16.808,-1.988 -6.978,-4.608 -10.741,-11.196 -8.433,-14.694 2.313,-3.505 9.836,-2.598 16.812,2.008 6.962,4.593 10.738,11.168 8.429,14.674 z"
   id="path390" />
&#10;				<path
   style="fill:#f7e8c4"
   d="m 3045.148,587.937 c -1.348,3.967 -8.848,5.035 -16.772,2.367 -7.906,-2.671 -13.235,-8.038 -11.917,-12.012 1.354,-3.994 8.855,-5.045 16.78,-2.372 7.911,2.659 13.233,8.039 11.909,12.017 z"
   id="path391" />
&#10;				<path
   style="fill:#f7e8c4"
   d="m 3046.173,610.74 c 1.185,4.027 -4.358,9.201 -12.38,11.551 -8.015,2.333 -15.465,0.977 -16.659,-3.059 -1.186,-4.029 4.365,-9.194 12.385,-11.543 8.016,-2.35 15.491,-0.98 16.654,3.051 z"
   id="path392" />
&#10;			</g>
&#10;			<g
   id="g395">&#10;				<path
   style="fill:#f7e8c4"
   d="m 3098.78,574.393 c -0.079,4.207 6.635,7.711 14.993,7.843 8.36,0.13 15.183,-3.162 15.253,-7.338 0.07,-4.193 -6.658,-7.725 -14.996,-7.863 -8.346,-0.12 -15.174,3.165 -15.25,7.358 z"
   id="path393" />
&#10;				<path
   style="fill:#f7e8c4"
   d="m 3093.976,603.477 c -1.147,4.035 4.443,9.159 12.483,11.429 8.06,2.264 15.491,0.85 16.639,-3.188 1.138,-4.037 -4.444,-9.149 -12.497,-11.429 -8.025,-2.273 -15.488,-0.849 -16.625,3.188 z"
   id="path394" />
&#10;				<path
   style="fill:#f7e8c4"
   d="m 3080.241,621.703 c -3.226,2.669 -1.59,10.058 3.712,16.538 5.294,6.444 12.207,9.545 15.46,6.877 3.25,-2.654 1.594,-10.049 -3.692,-16.507 -5.285,-6.484 -12.212,-9.552 -15.48,-6.908 z"
   id="path395" />
&#10;			</g>
&#10;		</g>
&#10;	</g>
&#10;	<path
   style="fill:#bb862e"
   d="m 3116.446,666.357 -46.46,82.079 -86.453,-160.813 c 55.96,2.485 102.374,36.059 132.913,78.734 z"
   id="path397" />
&#10;	<path
   style="fill:#a6ca38"
   d="m 3013.1,744.423 113.849,-137.161 c -42.233,-42.057 -90.812,1.53 -91.818,2.796 -12.354,15.505 -34.089,-0.526 -48.236,-4.371 -10.44,-2.838 -16.885,-1.439 -23.694,6.992 -9.047,11.205 -4.475,20.706 -3.713,34.006 1.285,22.309 -38.826,30.997 -27.283,55.335 12.089,25.492 56.872,35.977 80.895,42.403 z"
   id="path398" />
&#10;	<path
   style="fill:#dbe12b"
   d="m 3094.271,774.482 c 19.664,-27.957 108.563,-150.762 109.298,-155.351 1.639,-10.228 -24.194,-50.343 -67.97,-19.729 -13.286,9.293 -22.379,17.241 -36.063,7.049 -10.919,-8.135 -31.809,-39.195 -56.897,-24.534 -19.53,11.416 -7.109,21.61 -5.541,36.158 1.858,17.231 -10.242,16.808 -21.853,12.641 -95.531,-34.282 -18.631,117.644 79.026,143.766 z"
   id="path399" />
&#10;	&#10;		<rect
   x="3084.5859"
   y="486.11899"
   transform="matrix(0.7071,-0.7071,0.7071,0.7071,550.1164,2345.8745)"
   style="fill:#ef5123"
   width="44.037998"
   height="45.618999"
   id="rect399" />
&#10;	<path
   style="fill:#bb862e"
   d="m 3164.226,755.087 c 92.367,-24.659 69.428,-243.461 -65.128,-287.25 z"
   id="path400" />
&#10;	<path
   style="fill:#f6c914"
   d="m 3563.502,892.986 -76.711,76.71 c -15.327,15.326 -40.203,15.326 -55.531,0 L 3154.183,692.62 c -103.124,-103.126 40.368,-224.116 40.368,-224.116 l 368.951,368.951 c 15.324,15.324 15.338,40.193 0,55.531 z"
   id="path401" />
&#10;	<path
   style="fill:#f7b318"
   d="m 3217.858,686.041 c -19.469,19.469 -48.672,-9.994 -29.333,-29.333 l 52.243,-52.245 c 19.455,-19.456 48.715,9.954 29.335,29.334 z"
   id="path402" />
&#10;	<path
   style="fill:#f7b318"
   d="m 3297.201,765.382 c -19.471,19.467 -48.676,-9.996 -29.337,-29.334 l 52.241,-52.243 c 19.461,-19.459 48.717,9.954 29.333,29.335 z"
   id="path403" />
&#10;	<path
   style="fill:#f7b318"
   d="m 3376.54,844.721 c -19.468,19.471 -48.674,-9.996 -29.337,-29.333 l 52.245,-52.245 c 19.457,-19.458 48.713,9.956 29.333,29.336 z"
   id="path404" />
&#10;	<path
   style="fill:#f7b318"
   d="m 3455.879,924.063 c -19.471,19.467 -48.674,-9.996 -29.337,-29.336 l 52.245,-52.245 c 19.457,-19.457 48.713,9.956 29.333,29.336 z"
   id="path405" />
&#10;	<path
   style="fill:#f7b318"
   d="m 3486.791,969.696 -101.401,101.4 c -15.324,15.328 -40.204,15.328 -55.532,0 l -368.949,-368.951 8.065,-8.063 c 103.706,-96.763 166.636,-20.037 190.75,4.078 l 271.536,271.536 c 15.328,15.327 40.204,15.327 55.531,0 z"
   id="path406" />
&#10;</g>
</g>
  </g>
</svg>
